# xmcd CD database file
#
# Track frame offsets:
#	150
#	19322
#	34355
#	51592
#	62700
#	83085
#
# Disc length: 1330 seconds
#
# Revision: 0
# Processed by: cddbd v1.4PL0 Copyright (c) Steve Scherf et al.
# Submitted via: CDex 1.50
#
DISCID=50053006
DTITLE=Various Artist - On the Road with the George Strait Country Music Festival
DYEAR=2001
DGENRE=Country
TTITLE0=George Strait - I Can Still Make Cheyenne
TTITLE1=Brad Paisley - Me Neither
TTITLE2=Lee Ann Womack - Am I the Only Thing You've Done Wrong
TTITLE3=Alan Jackson - Meat and Potato Man
TTITLE4=Sara Evans - Four-Thirty
TTITLE5=Asleep At The Wheel - (Get Your Kicks On) Route 66
EXTD=YEAR: 2001
EXTT0=
EXTT1=
EXTT2=
EXTT3=
EXTT4=
EXTT5=
PLAYORDER=
